<svg xmlns="http://www.w3.org/2000/svg" width="1358" height="296" viewBox="0 0 1358 296" font-family="ui-monospace, SFMono-Regular, Menlo, monospace">
<defs><marker id="arr" viewBox="0 0 10 10" refX="9" refY="5" markerWidth="7" markerHeight="7" orient="auto-start-reverse"><path d="M 0 0 L 10 5 L 0 10 z" fill="#6b7280"/></marker></defs>
<path d="M 214 56 C 259 56, 259 56, 302 56" fill="none" stroke="#6b7280"  marker-end="url(#arr)"/>
<path d="M 494 56 C 539 56, 539 56, 582 56" fill="none" stroke="#6b7280"  marker-end="url(#arr)"/>
<path d="M 774 56 C 819 56, 819 56, 862 56" fill="none" stroke="#6b7280"  marker-end="url(#arr)"/><text x="819" y="50" font-size="10" fill="#b45309" text-anchor="middle">route=rework</text>
<path d="M 774 56 C 819 56, 819 148, 862 148" fill="none" stroke="#6b7280"  marker-end="url(#arr)"/><text x="819" y="109" font-size="10" fill="#b45309" text-anchor="middle">route=exhausted</text>
<path d="M 774 56 C 819 56, 819 240, 862 240" fill="none" stroke="#6b7280"  marker-end="url(#arr)"/><text x="819" y="168" font-size="10" fill="#b45309" text-anchor="middle">default</text>
<path d="M 959 88 C 959 124, 399 124, 399 90" fill="none" stroke="#6b7280"  marker-end="url(#arr)"/>
<path d="M 1054 148 C 1099 148, 1099 56, 1142 56" fill="none" stroke="#6b7280"  marker-end="url(#arr)"/><text x="1099" y="96" font-size="10" fill="#b45309" text-anchor="middle">decision=reject</text>
<path d="M 959 180 C 959 220, 959 168, 959 206" fill="none" stroke="#6b7280"  marker-end="url(#arr)"/><text x="959" y="207" font-size="10" fill="#b45309" text-anchor="middle">default</text>
<rect x="24" y="24" rx="8" width="190" height="64" fill="#dbeafe" stroke="#1d4ed8" stroke-width="1.5"/>
<text x="34" y="42" font-size="13" font-weight="bold" fill="#1d4ed8">produce  ▶</text>
<text x="34" y="57" font-size="10.5" fill="#374151">agent</text>
<rect x="304" y="24" rx="8" width="190" height="64" fill="#dbeafe" stroke="#1d4ed8" stroke-width="1.5"/>
<text x="314" y="42" font-size="13" font-weight="bold" fill="#1d4ed8">judge</text>
<text x="314" y="57" font-size="10.5" fill="#374151">agent</text>
<rect x="584" y="24" rx="8" width="190" height="64" fill="#e5e7eb" stroke="#374151" stroke-width="1.5"/>
<text x="594" y="42" font-size="13" font-weight="bold" fill="#374151">route</text>
<text x="594" y="57" font-size="10.5" fill="#374151">transform</text>
<rect x="864" y="24" rx="8" width="190" height="64" fill="#dbeafe" stroke="#1d4ed8" stroke-width="1.5"/>
<text x="874" y="42" font-size="13" font-weight="bold" fill="#1d4ed8">rework</text>
<text x="874" y="57" font-size="10.5" fill="#374151">agent</text>
<rect x="864" y="116" rx="8" width="190" height="64" fill="#fef3c7" stroke="#b45309" stroke-width="1.5"/>
<text x="874" y="134" font-size="13" font-weight="bold" fill="#b45309">human-fallback</text>
<text x="874" y="149" font-size="10.5" fill="#374151">human_gate</text>
<rect x="864" y="208" rx="8" width="190" height="64" fill="#e5e7eb" stroke="#374151" stroke-width="1.5"/>
<text x="874" y="226" font-size="13" font-weight="bold" fill="#374151">done</text>
<text x="874" y="241" font-size="10.5" fill="#374151">transform</text>
<text x="1010" y="264" font-size="10.5" fill="#9ca3af">■ end</text>
<rect x="1144" y="24" rx="8" width="190" height="64" fill="#e5e7eb" stroke="#374151" stroke-width="1.5"/>
<text x="1154" y="42" font-size="13" font-weight="bold" fill="#374151">rejected</text>
<text x="1154" y="57" font-size="10.5" fill="#374151">transform</text>
<text x="1290" y="80" font-size="10.5" fill="#9ca3af">■ end</text>
</svg>